<svg id="Logo" xmlns="http://www.w3.org/2000/svg" width="75.5" height="75.5" viewBox="0 0 75.5 75.5">
  <path id="Bound" d="M0,0H75.5V75.5H0Z" fill="none"/>
  <path id="Shape" d="M26.13,43.506a2.517,2.517,0,0,0,3.134,0L50.85,26.32,53.523,24.2a2.517,2.517,0,0,0,0-3.943L29.263.964a2.517,2.517,0,0,0-3.133,0L1.859,20.267a2.517,2.517,0,0,0,0,3.938L4.512,26.32Z" transform="translate(10.053 8.147)" fill="#5351fb"/>
  <path id="Path" d="M27.168,16.095a2.517,2.517,0,0,1-3.133,0L4.412.494A2.517,2.517,0,0,0,.856.923l-.412.533A2.517,2.517,0,0,0,.9,5L24.1,22.737a2.517,2.517,0,0,0,3.057,0L50.359,5a2.517,2.517,0,0,0,.46-3.542l-.44-.567A2.517,2.517,0,0,0,46.824.461Z" transform="translate(12.117 43.73)" fill="#5351fb" opacity="0.3"/>
</svg>
